<svg width="80" height="84" viewBox="0 0 80 84" fill="none" xmlns="http://www.w3.org/2000/svg">
<path d="M44.5943 59.4325L59.1854 42.9675C64.6799 36.7674 64.1078 27.2872 57.9078 21.7928C51.7078 16.2983 42.2275 16.8704 36.7331 23.0704L22.1419 39.5354C16.6475 45.7355 17.2195 55.2157 23.4196 60.7101C29.6196 66.2046 39.0999 65.6325 44.5943 59.4325Z" stroke="white" stroke-width="4"/>
<path d="M47.959 33.019C54.159 38.5134 63.6393 37.9414 69.1337 31.7414C74.6281 25.5413 74.0561 16.0611 67.856 10.5667C61.656 5.07227 52.1758 5.64429 46.6814 11.8443C41.1869 18.0444 41.759 27.5246 47.959 33.019Z" stroke="#2E9CCA" stroke-width="4"/>
<path d="M12.1445 73.4331C18.3446 78.9275 27.8248 78.3555 33.3192 72.1554C38.8137 65.9554 38.2416 56.4752 32.0416 50.9808C25.8416 45.4863 16.3613 46.0584 10.8669 52.2584C5.37248 58.4584 5.9445 67.9387 12.1445 73.4331Z" stroke="#2E9CCA" stroke-width="4"/>
<line x1="29.3124" y1="31.4908" x2="52.3124" y2="51.4908" stroke="white" stroke-width="4"/>
</svg>
