<svg width="3208" height="2209" viewBox="0 0 3208 2209" fill="none" xmlns="http://www.w3.org/2000/svg">
<g filter="url(#filter0_d_39_3)">
<path d="M629.026 1511.06H1229.03C1258.33 1511.06 1282.06 1487.33 1282.06 1458.03C1282.06 1428.73 1258.33 1405 1229.03 1405H629.026C599.73 1405 576 1428.73 576 1458.03C576 1487.33 599.73 1511.06 629.026 1511.06Z" fill="#2E9CCA"/>
<path d="M373.137 1754H1528.85C1585.29 1754 1631 1730.06 1631 1700.5C1631 1670.94 1585.29 1647 1528.85 1647H373.137C316.709 1647 271 1670.94 271 1700.5C271 1730.06 316.709 1754 373.137 1754Z" fill="#2E9CCA"/>
<path d="M3052.78 0.490234H155.172C71.8257 0.490234 4 69.356 4 154.012V2046.97C4 2131.65 71.8257 2200.51 155.172 2200.51H3052.78C3136.17 2200.51 3204 2131.65 3204 2046.97V154.012C3204 69.356 3136.17 0.490234 3052.78 0.490234ZM3104 2046.97C3104 2075.62 3081 2098.97 3052.78 2098.97H155.172C126.951 2098.97 104.001 2075.62 104.001 2046.97V897.66H3104V2046.97ZM3104 795.624H104.001V491.501H3104V795.624ZM3104 389.469H104.001V154.012C104.001 125.357 126.951 102.031 155.172 102.031H3052.78C3081 102.031 3104 125.357 3104 154.012V389.469Z" fill="#2E9CCA"/>
<path d="M2948.65 1568.84C2934.68 1536.7 2913.16 1508.47 2870.14 1484.72C2863.94 1481.21 2857.61 1477.95 2851.17 1474.94C2834.66 1467.24 2831.41 1438.48 2844.71 1426.03V1426.03C2864.49 1408.34 2879.48 1385.94 2888.3 1360.91C2896.41 1335.48 2899.73 1308.75 2898.08 1282.11C2895 1235.16 2885.78 1189.6 2861.2 1156.91C2836.61 1124.21 2801.96 1099.06 2756.14 1081.45C2725.93 1069.94 2695.11 1062.14 2651.68 1058.21C2638.99 1057.06 2629.01 1046.6 2629.01 1033.86V902C2629.01 888.745 2618.26 878 2605.01 878H2541.25C2527.99 878 2517.25 888.745 2517.25 902V1032.86C2517.25 1046.11 2506.5 1056.86 2493.25 1056.86H2451.84C2438.58 1056.86 2427.84 1046.11 2427.84 1032.86V902C2427.84 888.745 2417.09 878 2403.84 878H2337.28C2324.02 878 2313.28 888.745 2313.28 902V1032.86C2313.28 1046.11 2302.53 1056.86 2289.28 1056.86H2094C2080.75 1056.86 2070 1067.6 2070 1080.86V1167C2070 1180.25 2080.75 1191 2094 1191H2147.87C2172.18 1191 2188.66 1193.24 2197.05 1197.43C2204.85 1200.77 2211.26 1206.69 2215.21 1214.2C2218.84 1221.18 2220.52 1237.67 2220.52 1263.1V1747.13C2220.52 1772.29 2218.84 1788.49 2215.21 1795.76C2211.58 1803.03 2209.62 1809.45 2200.96 1813.37C2192.3 1817.28 2192.02 1817 2167.99 1817H2114.28C2102.67 1817 2092.72 1825.31 2090.66 1836.73L2075.1 1922.88C2072.45 1937.6 2083.76 1951.14 2098.72 1951.14H2289.08C2302.34 1951.14 2313.08 1961.89 2313.08 1975.14V2106C2313.08 2119.25 2323.83 2130 2337.08 2130H2403.64C2416.9 2130 2427.64 2119.25 2427.64 2106V1975.14C2427.64 1961.89 2438.39 1951.14 2451.64 1951.14H2493.05C2506.31 1951.14 2517.05 1961.89 2517.05 1975.14V2106C2517.05 2119.25 2527.8 2130 2541.05 2130H2604.81C2618.07 2130 2628.81 2119.25 2628.81 2106V1972.85C2628.81 1960.07 2638.86 1949.56 2651.61 1948.64C2712.5 1944.27 2757.64 1935.2 2794.78 1921.24C2848.71 1901.12 2890.06 1871.77 2919.68 1833.21C2949.29 1794.64 2958.79 1735.68 2961.39 1690.12C2963.26 1649.6 2961.31 1597.34 2948.65 1568.84ZM2427.64 1231.77C2427.64 1218.51 2438.39 1207.77 2451.64 1207.77H2493.05C2506.31 1207.77 2517.05 1218.51 2517.05 1231.77V1390.57C2517.05 1403.83 2506.31 1414.57 2493.05 1414.57H2451.64C2438.39 1414.57 2427.64 1403.83 2427.64 1390.57V1231.77ZM2451.64 1800.23C2438.39 1800.23 2427.64 1789.49 2427.64 1776.23V1572.71C2427.64 1559.46 2438.39 1548.71 2451.64 1548.71H2493.05C2506.31 1548.71 2517.05 1559.46 2517.05 1572.71V1776.23C2517.05 1789.49 2506.31 1800.23 2493.05 1800.23H2451.64ZM2628.81 1254.67C2628.81 1237.54 2645.75 1227.66 2656.83 1240.72C2660.47 1245.01 2663.92 1249.56 2667.37 1254.16C2679.39 1270.09 2685.53 1291.33 2685.53 1313.96C2685.53 1335.76 2677.43 1354.49 2664.58 1371.25C2662.39 1374.08 2660.29 1376.73 2658.19 1379.22C2646.9 1392.66 2628.81 1382.15 2628.81 1364.59V1254.67ZM2709.24 1740.43C2709.25 1740.43 2709.26 1740.45 2709.25 1740.45C2687.48 1759.72 2674.9 1768.66 2647.53 1778.99V1778.99C2638.09 1782.32 2628.81 1774.84 2628.81 1764.83V1580.72C2628.81 1566.07 2642.01 1554.69 2655.56 1560.28C2657.18 1560.95 2658.79 1561.66 2660.39 1562.41C2682.18 1571.63 2702.86 1581.69 2715.71 1599.3C2729.96 1619.52 2737.75 1643.59 2738.06 1668.32C2737.98 1698.77 2730.16 1721.96 2709.23 1740.4C2709.22 1740.41 2709.23 1740.43 2709.24 1740.43V1740.43Z" fill="#2E9CCA"/>
</g>
<defs>
<filter id="filter0_d_39_3" x="0" y="0.490234" width="3208" height="2208.02" filterUnits="userSpaceOnUse" color-interpolation-filters="sRGB">
<feFlood flood-opacity="0" result="BackgroundImageFix"/>
<feColorMatrix in="SourceAlpha" type="matrix" values="0 0 0 0 0 0 0 0 0 0 0 0 0 0 0 0 0 0 127 0" result="hardAlpha"/>
<feOffset dy="4"/>
<feGaussianBlur stdDeviation="2"/>
<feComposite in2="hardAlpha" operator="out"/>
<feColorMatrix type="matrix" values="0 0 0 0 0 0 0 0 0 0 0 0 0 0 0 0 0 0 0.25 0"/>
<feBlend mode="normal" in2="BackgroundImageFix" result="effect1_dropShadow_39_3"/>
<feBlend mode="normal" in="SourceGraphic" in2="effect1_dropShadow_39_3" result="shape"/>
</filter>
</defs>
</svg>
