<svg width="1000" height="1493" viewBox="0 0 1000 1493" fill="none" xmlns="http://www.w3.org/2000/svg">
<path d="M245.663 236.829C243.214 238.797 241.789 241.779 241.789 244.923V346.152H93.3738C41.8872 346.152 0 388.039 0 439.52V1053.48C0 1104.96 41.8872 1146.84 93.3738 1146.84H241.789V1248.07C241.789 1251.22 243.214 1254.2 245.663 1256.17L305.847 1304.57V1348.47C269.868 1352.81 241.789 1383.17 241.789 1420.3C241.789 1460.38 274.401 1493 314.488 1493C354.574 1493 387.187 1460.38 387.187 1420.3C387.187 1384.37 360.919 1354.64 326.618 1348.82V1299.59C326.618 1296.45 325.193 1293.47 322.743 1291.5L262.56 1243.09V1146.84H513.619V1209.29C478.476 1214.39 451.305 1244.42 451.305 1280.94C451.305 1321.03 483.917 1353.64 524.004 1353.64C564.091 1353.64 596.703 1321.02 596.703 1280.94C596.703 1244.42 569.532 1214.39 534.389 1209.29V1146.84H785.443V1243.09L725.26 1291.5C722.81 1293.47 721.385 1296.45 721.385 1299.59V1348.65C686.243 1353.74 659.072 1383.77 659.072 1420.3C659.072 1460.38 691.684 1493 731.771 1493C771.858 1493 804.469 1460.38 804.469 1420.3C804.469 1383.77 777.299 1353.74 742.156 1348.65V1304.57L802.34 1256.17C804.789 1254.2 806.214 1251.22 806.214 1248.07V1146.84H899.06C954.72 1146.84 1000 1101.56 1000 1045.9V447.096C1000 391.436 954.721 346.151 899.06 346.151H806.214V244.923C806.214 241.779 804.789 238.797 802.34 236.829L742.156 188.421V144.526C778.135 140.19 806.214 109.822 806.214 72.6991C806.214 32.6173 773.602 0.000233597 733.515 0.000233597C693.428 0.000233597 660.816 32.6173 660.816 72.6991C660.816 108.628 687.084 138.354 721.385 144.171V193.401C721.385 196.545 722.81 199.527 725.26 201.494L785.443 249.903V346.152H534.39V283.701C569.532 278.607 596.703 248.579 596.703 212.052C596.703 171.97 564.091 139.353 524.004 139.353C483.918 139.353 451.306 171.97 451.306 212.052C451.306 248.579 478.476 278.607 513.619 283.701V346.152H262.56V249.903L322.744 201.494C325.193 199.527 326.618 196.545 326.618 193.401V144.348C361.761 139.254 388.932 109.226 388.932 72.6988C388.932 32.617 356.319 0 316.233 0C276.146 0 243.534 32.617 243.534 72.6988C243.534 109.226 270.705 139.254 305.847 144.348V188.421L245.663 236.829ZM366.416 1420.3C366.416 1448.93 343.119 1472.22 314.488 1472.22C285.857 1472.22 262.56 1448.93 262.56 1420.3C262.56 1391.67 285.857 1368.37 314.488 1368.37C343.119 1368.37 366.416 1391.67 366.416 1420.3ZM575.932 1280.94C575.932 1309.57 552.636 1332.87 524.004 1332.87C495.373 1332.87 472.077 1309.57 472.077 1280.94C472.077 1252.32 495.358 1229.04 523.974 1229.02L524.004 1229.03L524.035 1229.02C552.651 1229.04 575.932 1252.32 575.932 1280.94ZM783.699 1420.3C783.699 1448.93 760.403 1472.22 731.771 1472.22C703.14 1472.22 679.843 1448.93 679.843 1420.3C679.843 1391.67 703.14 1368.37 731.771 1368.37C760.403 1368.37 783.699 1391.67 783.699 1420.3ZM681.588 72.6991C681.588 44.0678 704.885 20.7713 733.516 20.7713C762.147 20.7713 785.444 44.0678 785.444 72.6991C785.444 101.33 762.147 124.627 733.516 124.627C704.885 124.627 681.588 101.33 681.588 72.6991ZM472.076 212.052C472.076 183.421 495.373 160.124 524.004 160.124C552.635 160.124 575.932 183.421 575.932 212.052C575.932 240.466 552.97 263.564 524.643 263.914C524.42 263.902 524.227 263.788 524.004 263.788C523.781 263.788 523.588 263.902 523.365 263.914C495.038 263.564 472.076 240.465 472.076 212.052ZM958.458 818.573H777.502C737.76 818.573 705.427 786.24 705.427 746.503C705.427 706.756 737.76 674.422 777.502 674.422H958.458V818.573ZM958.458 447.096V653.651H777.502C726.305 653.651 684.656 695.305 684.656 746.503C684.656 797.7 726.305 839.344 777.502 839.344H958.458V1045.9C958.458 1078.66 931.815 1105.3 899.061 1105.3H93.3738C64.7932 1105.3 41.5424 1082.06 41.5424 1053.48V439.52C41.5424 410.94 64.7932 387.694 93.3738 387.694H899.061C931.815 387.694 958.458 414.337 958.458 447.096ZM264.304 72.6991C264.304 44.0678 287.601 20.7713 316.232 20.7713C344.863 20.7713 368.16 44.0678 368.16 72.6991C368.16 101.33 344.863 124.627 316.232 124.627C287.601 124.627 264.304 101.33 264.304 72.6991Z" fill="#2E9CCA"/>
<path d="M894.296 906.85C900.031 906.85 904.681 902.205 904.681 896.464V865.307C904.681 859.567 900.031 854.922 894.296 854.922C888.56 854.922 883.91 859.567 883.91 865.307V896.464C883.91 902.205 888.56 906.85 894.296 906.85Z" fill="#2E9CCA"/>
<path d="M105.693 934.741C111.429 934.741 116.079 930.095 116.079 924.355V862.336C116.079 856.595 111.429 851.95 105.693 851.95C99.9578 851.95 95.3076 856.595 95.3076 862.336V924.355C95.3079 930.095 99.9581 934.741 105.693 934.741Z" fill="#2E9CCA"/>
<path d="M104.238 1055.82C106.185 1057.03 108.442 1057.65 110.648 1057.65C113.974 1057.65 117.184 1056.24 118.995 1053.3C122.007 1048.42 120.957 1042.87 116.079 1039.86V986.381C116.079 980.641 111.429 975.996 105.693 975.996C99.9578 975.996 95.3076 980.641 95.3076 986.381V1039.86C95.3076 1046.4 98.6442 1052.38 104.238 1055.82Z" fill="#2E9CCA"/>
<path d="M105.693 810.697C111.429 810.697 116.079 806.052 116.079 800.311V738.282C116.079 732.542 111.429 727.896 105.693 727.896C99.9578 727.896 95.3076 732.542 95.3076 738.282V800.311C95.3079 806.052 99.9581 810.697 105.693 810.697Z" fill="#2E9CCA"/>
<path d="M373.993 455.139H436.017C441.753 455.139 446.403 450.494 446.403 444.754C446.403 439.013 441.753 434.368 436.017 434.368H373.993C368.258 434.368 363.607 439.013 363.607 444.754C363.607 450.494 368.258 455.139 373.993 455.139Z" fill="#2E9CCA"/>
<path d="M357.566 1037.86H295.542C289.806 1037.86 285.156 1042.5 285.156 1048.24C285.156 1053.98 289.806 1058.63 295.542 1058.63H357.566C363.302 1058.63 367.952 1053.98 367.952 1048.24C367.952 1042.5 363.302 1037.86 357.566 1037.86Z" fill="#2E9CCA"/>
<path d="M746.159 455.142H808.183C813.919 455.142 818.569 450.497 818.569 444.757C818.569 439.016 813.919 434.371 808.183 434.371H746.159C740.423 434.371 735.773 439.016 735.773 444.757C735.773 450.497 740.424 455.142 746.159 455.142Z" fill="#2E9CCA"/>
<path d="M657.306 1048.24C657.306 1053.98 661.956 1058.63 667.691 1058.63H729.715C735.451 1058.63 740.101 1053.98 740.101 1048.24C740.101 1042.5 735.451 1037.86 729.715 1037.86H667.691C661.956 1037.86 657.306 1042.5 657.306 1048.24Z" fill="#2E9CCA"/>
<path d="M870.197 455.144H879.746C882.043 455.144 883.915 457.01 883.915 459.313V488.918C883.915 494.658 888.565 499.303 894.3 499.303C900.035 499.303 904.686 494.658 904.686 488.918V459.313C904.686 445.56 893.499 434.373 879.746 434.373H870.197C864.462 434.373 859.812 439.018 859.812 444.759C859.812 450.499 864.462 455.144 870.197 455.144Z" fill="#2E9CCA"/>
<path d="M622.109 455.139H684.133C689.869 455.139 694.519 450.494 694.519 444.754C694.519 439.013 689.869 434.368 684.133 434.368H622.109C616.374 434.368 611.724 439.013 611.724 444.754C611.724 450.494 616.374 455.139 622.109 455.139Z" fill="#2E9CCA"/>
<path d="M894.296 1030.9C900.031 1030.9 904.681 1026.26 904.681 1020.52V958.486C904.681 952.746 900.031 948.101 894.296 948.101C888.56 948.101 883.91 952.746 883.91 958.486V1020.52C883.91 1026.26 888.56 1030.9 894.296 1030.9Z" fill="#2E9CCA"/>
<path d="M791.73 1058.63H853.755C859.49 1058.63 864.14 1053.99 864.14 1048.25C864.14 1042.51 859.49 1037.86 853.755 1037.86H791.73C785.995 1037.86 781.345 1042.51 781.345 1048.25C781.345 1053.99 785.995 1058.63 791.73 1058.63Z" fill="#2E9CCA"/>
<path d="M105.693 562.6C111.429 562.6 116.079 557.955 116.079 552.215V490.185C116.079 484.445 111.429 479.8 105.693 479.8C99.9578 479.8 95.3076 484.445 95.3076 490.185V552.215C95.3079 557.955 99.9581 562.6 105.693 562.6Z" fill="#2E9CCA"/>
<path d="M533.255 1048.24C533.255 1053.98 537.905 1058.63 543.64 1058.63H605.665C611.4 1058.63 616.05 1053.98 616.05 1048.24C616.05 1042.5 611.4 1037.86 605.665 1037.86H543.64C537.905 1037.86 533.255 1042.5 533.255 1048.24Z" fill="#2E9CCA"/>
<path d="M249.958 455.139H311.982C317.718 455.139 322.368 450.494 322.368 444.754C322.368 439.013 317.718 434.368 311.982 434.368H249.958C244.222 434.368 239.572 439.013 239.572 444.754C239.572 450.494 244.222 455.139 249.958 455.139Z" fill="#2E9CCA"/>
<path d="M105.693 686.639C111.429 686.639 116.079 681.994 116.079 676.254V614.225C116.079 608.484 111.429 603.839 105.693 603.839C99.9578 603.839 95.3076 608.484 95.3076 614.225V676.254C95.3079 681.994 99.9581 686.639 105.693 686.639Z" fill="#2E9CCA"/>
<path d="M125.881 455.144H187.905C193.641 455.144 198.291 450.499 198.291 444.758C198.291 439.018 193.641 434.373 187.905 434.373H125.881C120.145 434.373 115.495 439.018 115.495 444.758C115.495 450.499 120.146 455.144 125.881 455.144Z" fill="#2E9CCA"/>
<path d="M498.044 455.143H560.068C565.803 455.143 570.454 450.498 570.454 444.758C570.454 439.017 565.803 434.372 560.068 434.372H498.044C492.308 434.372 487.658 439.017 487.658 444.758C487.658 450.498 492.308 455.143 498.044 455.143Z" fill="#2E9CCA"/>
<path d="M409.189 1048.25C409.189 1053.99 413.84 1058.63 419.575 1058.63H481.599C487.335 1058.63 491.985 1053.99 491.985 1048.25C491.985 1042.51 487.335 1037.86 481.599 1037.86H419.575C413.84 1037.86 409.189 1042.51 409.189 1048.25Z" fill="#2E9CCA"/>
<path d="M233.515 1037.86H171.49C165.755 1037.86 161.104 1042.5 161.104 1048.24C161.104 1053.98 165.755 1058.63 171.49 1058.63H233.515C239.25 1058.63 243.9 1053.98 243.9 1048.24C243.9 1042.5 239.25 1037.86 233.515 1037.86Z" fill="#2E9CCA"/>
<path d="M894.296 541.058C888.56 541.058 883.91 545.703 883.91 551.443V582.6C883.91 588.341 888.56 592.986 894.296 592.986C900.031 592.986 904.681 588.341 904.681 582.6V551.443C904.681 545.703 900.031 541.058 894.296 541.058Z" fill="#2E9CCA"/>
<path d="M734.496 746.506C734.496 769.883 753.513 788.9 776.89 788.9C800.268 788.9 819.284 769.883 819.284 746.506C819.284 723.128 800.268 704.102 776.89 704.102C753.513 704.102 734.496 723.128 734.496 746.506ZM798.513 746.506C798.513 758.433 788.812 768.129 776.89 768.129C764.968 768.129 755.267 758.433 755.267 746.506C755.267 734.579 764.968 724.873 776.89 724.873C788.812 724.873 798.513 734.579 798.513 746.506Z" fill="#2E9CCA"/>
<path d="M366.905 647.734C364.308 641.761 360.309 636.516 352.311 632.101C349.011 630.235 345.516 628.745 341.891 627.656C340.983 627.383 340.845 626.058 341.666 625.584C343.797 624.353 345.784 622.881 347.585 621.195C351.262 617.908 354.049 613.746 355.687 609.094C357.195 604.367 357.812 599.401 357.505 594.448C356.934 585.723 355.22 577.258 350.65 571.181C346.079 565.105 339.639 560.431 331.122 557.159C324.779 554.742 318.289 553.204 308.437 552.592C307.907 552.559 307.491 552.121 307.491 551.59V520.35C307.491 519.798 307.044 519.35 306.491 519.35H287.717C287.165 519.35 286.717 519.798 286.717 520.35V551.589C286.717 552.141 286.27 552.589 285.717 552.589H271.098C270.546 552.589 270.098 552.141 270.098 551.589V520.35C270.098 519.798 269.65 519.35 269.098 519.35H249.805C249.253 519.35 248.805 519.798 248.805 520.35V551.589C248.805 552.141 248.357 552.589 247.805 552.589H204.585C204.033 552.589 203.585 553.036 203.585 553.589V576.517C203.585 577.07 204.033 577.517 204.585 577.517H218.059C222.578 577.517 225.642 577.933 227.2 578.712C228.65 579.332 229.842 580.432 230.576 581.828C231.251 583.126 231.562 586.191 231.562 590.917V680.868C231.562 685.542 231.251 688.555 230.576 689.905C229.9 691.255 229.537 692.45 227.927 693.177C226.317 693.904 226.265 693.852 221.799 693.852H208.923C208.44 693.852 208.025 694.198 207.939 694.674L203.798 717.603C203.687 718.217 204.158 718.781 204.782 718.781H247.768C248.321 718.781 248.768 719.228 248.768 719.781V751.019C248.768 751.571 249.216 752.019 249.768 752.019H269.062C269.614 752.019 270.062 751.571 270.062 751.019V719.781C270.062 719.228 270.51 718.781 271.062 718.781H285.681C286.233 718.781 286.681 719.228 286.681 719.781V751.019C286.681 751.571 287.129 752.019 287.681 752.019H306.455C307.007 752.019 307.455 751.571 307.455 751.019V719.524C307.455 718.991 307.875 718.552 308.407 718.523C321.412 717.814 330.749 716.063 338.305 713.224C348.328 709.484 356.014 704.031 361.52 696.864C367.025 689.697 368.79 678.739 369.273 670.273C369.621 662.743 369.258 653.031 366.905 647.734ZM270.062 581.633C270.062 581.081 270.51 580.633 271.062 580.633H285.681C286.233 580.633 286.681 581.081 286.681 581.633V618.065C286.681 618.618 286.233 619.065 285.681 619.065H271.062C270.51 619.065 270.062 618.618 270.062 618.065V581.633ZM271.062 690.736C270.51 690.736 270.062 690.288 270.062 689.736V644.994C270.062 644.442 270.51 643.994 271.062 643.994H285.681C286.233 643.994 286.681 644.442 286.681 644.994V689.736C286.681 690.288 286.233 690.736 285.681 690.736H271.062ZM307.455 584.159C307.455 583.445 308.181 582.968 308.795 583.331C311.182 584.743 312.902 586.962 314.622 589.255C316.855 592.215 317.998 596.162 317.998 600.369C317.998 604.42 316.492 607.899 314.103 611.015C312.447 613.151 311.083 614.738 308.846 616.052C308.215 616.423 307.455 615.942 307.455 615.21V584.159ZM322.405 679.622C322.407 679.622 322.409 679.625 322.406 679.627C318.359 683.207 316.022 684.868 310.935 686.789C310.187 687.052 309.428 687.285 308.662 687.486C308.045 687.648 307.455 687.173 307.455 686.535V645.932C307.455 645.322 307.998 644.852 308.596 644.974C310.227 645.308 311.814 645.833 313.324 646.539C317.375 648.253 321.218 650.123 323.607 653.395C326.256 657.153 327.704 661.625 327.762 666.222C327.746 671.881 326.293 676.19 322.403 679.617C322.401 679.618 322.402 679.622 322.405 679.622V679.622Z" fill="#2E9CCA"/>
</svg>
